<?xml version="1.0" standalone="no"?>
<!DOCTYPE svg PUBLIC "-//W3C//DTD SVG 20010904//EN"
 "http://www.w3.org/TR/2001/REC-SVG-20010904/DTD/svg10.dtd">
<svg version="1.0" xmlns="http://www.w3.org/2000/svg"
 width="225.000000pt" height="225.000000pt" viewBox="0 0 225.000000 225.000000"
 preserveAspectRatio="xMidYMid meet">

<g transform="translate(0.000000,225.000000) scale(0.100000,-0.100000)"
fill="#000000" stroke="none">
<path d="M700 1674 c0 -14 4 -23 10 -19 6 3 10 15 10 26 0 10 -4 19 -10 19 -5
0 -10 -12 -10 -26z"/>
<path d="M1530 1681 c0 -11 5 -23 10 -26 6 -4 10 5 10 19 0 14 -4 26 -10 26
-5 0 -10 -9 -10 -19z"/>
<path d="M632 1668 c-15 -15 -16 -38 -2 -38 12 0 23 25 18 40 -2 7 -7 7 -16
-2z"/>
<path d="M1602 1660 c1 -13 9 -25 16 -28 17 -5 15 23 -4 39 -14 11 -15 10 -12
-11z"/>
<path d="M756 1652 c-3 -5 1 -18 9 -28 14 -18 14 -18 15 3 0 23 -15 39 -24 25z"/>
<path d="M812 1648 c-15 -15 -16 -38 -2 -38 12 0 23 25 18 40 -2 7 -7 7 -16
-2z"/>
<path d="M1422 1640 c1 -13 9 -25 16 -28 17 -5 15 23 -4 39 -14 11 -15 10 -12
-11z"/>
<path d="M1474 1646 c-10 -27 2 -43 14 -19 8 14 9 24 2 28 -6 3 -13 -1 -16 -9z"/>
<path d="M580 1617 c0 -18 28 -42 37 -33 9 8 -9 38 -25 44 -7 2 -12 -3 -12
-11z"/>
<path d="M653 1615 c-3 -9 -3 -19 1 -22 7 -7 36 16 36 28 0 15 -30 10 -37 -6z"/>
<path d="M1560 1621 c0 -12 29 -35 36 -28 11 10 -5 37 -21 37 -8 0 -15 -4 -15
-9z"/>
<path d="M1642 1618 c-14 -14 -16 -38 -4 -38 12 0 32 23 32 37 0 16 -12 17
-28 1z"/>
<path d="M715 1600 c-10 -16 4 -50 21 -50 8 0 14 8 14 19 0 23 -25 47 -35 31z"/>
<path d="M907 1596 c-18 -19 -22 -36 -8 -36 13 0 33 28 29 41 -3 8 -9 6 -21
-5z"/>
<path d="M1320 1596 c0 -15 28 -42 35 -34 9 8 -5 36 -21 42 -8 3 -14 -1 -14
-8z"/>
<path d="M1512 1598 c-17 -17 -15 -48 2 -48 18 0 32 38 19 51 -5 5 -14 4 -21
-3z"/>
<path d="M842 1588 c-14 -14 -16 -38 -4 -38 12 0 32 23 32 37 0 16 -12 17 -28
1z"/>
<path d="M1380 1587 c0 -18 28 -42 37 -33 9 8 -9 38 -25 44 -7 2 -12 -3 -12
-11z"/>
<path d="M770 1566 c-5 -15 -10 -45 -10 -67 0 -37 -13 -53 -23 -26 -2 6 -8 9
-12 5 -4 -4 0 -17 9 -30 9 -12 16 -29 16 -37 0 -19 -47 24 -56 51 -3 10 -9 16
-14 13 -9 -6 -30 48 -30 76 0 11 -4 19 -10 19 -31 0 5 -89 66 -164 31 -37 53
-70 51 -73 -3 -3 -27 16 -53 42 -25 26 -60 52 -78 57 -17 6 -41 20 -53 31 -20
17 -23 18 -23 4 0 -19 37 -47 61 -47 19 0 79 -46 79 -60 0 -13 -36 -21 -64
-14 -14 3 -34 20 -45 37 -18 27 -21 29 -21 11 0 -36 41 -64 93 -64 26 0 64 -7
85 -16 20 -8 66 -18 102 -21 36 -3 72 -9 80 -13 23 -13 -100 -24 -130 -13 -14
6 -34 14 -45 19 -18 7 -18 6 -6 -9 12 -15 11 -17 -5 -17 -11 0 -29 -3 -41 -6
-17 -5 -31 2 -54 25 -36 37 -48 35 -24 -3 17 -26 17 -26 -9 -26 -17 0 -25 -4
-21 -11 5 -7 41 -8 111 -3 65 4 104 3 104 -3 0 -18 -46 -53 -78 -59 -34 -7
-44 -24 -14 -24 25 1 99 36 108 53 16 26 54 39 95 32 47 -8 99 -49 99 -78 0
-20 0 -20 -24 2 -16 15 -42 25 -70 28 -51 6 -55 0 -31 -47 19 -37 47 -52 88
-48 32 3 32 2 49 -62 27 -103 6 -200 -48 -221 -18 -6 -39 -5 -66 3 -31 9 -47
9 -74 -1 -22 -8 -53 -10 -84 -6 -26 4 -50 3 -53 -2 -9 -15 85 -19 161 -7 30 4
48 2 55 -6 10 -10 3 -11 -31 -7 -24 3 -40 1 -36 -4 3 -5 31 -9 62 -9 41 0 53
-3 42 -10 -13 -8 -13 -10 1 -10 9 0 22 7 29 15 7 9 15 13 18 10 3 -3 -3 -14
-13 -25 -21 -23 -59 -25 -95 -5 -14 8 -43 14 -65 14 -22 0 -51 -6 -65 -14 -14
-8 -36 -15 -50 -16 -18 -1 -20 -3 -7 -6 10 -3 41 3 70 12 43 13 57 14 82 4 28
-12 28 -13 8 -16 -13 -3 -32 -18 -44 -34 -12 -17 -31 -34 -43 -39 -21 -9 -21
-9 0 -9 11 -1 33 12 49 29 27 28 89 50 103 36 3 -4 -7 -18 -23 -31 l-30 -25
50 26 c63 33 84 51 101 89 13 30 13 30 14 -22 0 -72 -14 -85 -94 -87 -23 -1
-34 -9 -49 -36 l-19 -35 22 28 c13 16 31 27 46 27 28 0 31 -16 7 -42 -10 -11
-12 -18 -4 -18 7 0 20 13 29 30 9 16 20 30 25 30 13 0 7 -33 -10 -52 -10 -11
-12 -18 -4 -18 12 0 26 28 35 73 4 15 13 27 21 27 18 0 20 -31 3 -48 -9 -9 -9
-12 0 -12 21 0 29 39 18 89 -5 27 -6 56 -2 67 8 18 8 18 16 -1 5 -11 9 -51 10
-90 1 -38 4 -61 7 -50 3 11 10 25 15 30 11 11 6 -62 -7 -100 -5 -15 -3 -15 7
3 l14 23 12 -23 c9 -16 11 -17 6 -3 -12 39 -17 110 -6 100 5 -5 12 -19 15 -30
3 -11 6 12 7 50 1 39 5 79 10 90 8 19 8 19 16 1 4 -11 3 -40 -2 -67 -11 -50
-3 -89 18 -89 9 0 9 3 0 12 -17 17 -15 48 3 48 8 0 17 -12 21 -27 9 -45 23
-73 35 -73 8 0 6 7 -4 18 -17 19 -23 52 -9 52 4 0 15 -14 24 -30 9 -17 22 -30
29 -30 8 0 6 7 -4 18 -24 26 -21 42 7 42 15 0 33 -11 46 -27 l22 -28 -19 35
c-15 27 -26 35 -49 36 -80 2 -94 15 -94 87 1 52 1 52 14 22 17 -38 38 -56 101
-89 l50 -26 -30 25 c-16 13 -26 27 -23 31 14 14 76 -8 103 -36 16 -17 38 -30
49 -29 21 0 21 0 0 9 -12 5 -31 22 -43 39 -12 16 -31 31 -44 34 -20 3 -20 4 8
16 25 10 39 9 82 -4 29 -9 60 -15 70 -12 13 3 11 5 -7 6 -14 1 -36 8 -50 16
-14 8 -43 14 -65 14 -22 0 -51 -6 -65 -14 -36 -20 -74 -18 -95 5 -10 11 -16
22 -13 25 3 3 11 -1 18 -10 7 -8 20 -15 29 -15 14 0 14 2 1 10 -11 7 1 10 42
10 31 0 59 4 62 9 4 5 -12 7 -36 4 -34 -4 -41 -3 -31 7 7 8 25 10 55 6 76 -12
170 -8 161 7 -3 5 -27 6 -53 2 -31 -4 -62 -2 -84 6 -27 10 -43 10 -74 1 -27
-8 -48 -9 -66 -3 -54 21 -75 118 -48 221 17 64 17 65 49 62 41 -4 69 11 88 48
24 47 20 53 -31 47 -28 -3 -54 -13 -70 -28 -24 -22 -24 -22 -24 -2 0 29 52 70
99 78 41 7 79 -6 95 -32 9 -17 83 -52 109 -53 29 0 19 17 -15 24 -32 6 -78 41
-78 59 0 6 39 7 104 3 70 -5 106 -4 111 3 4 7 -4 11 -21 11 -26 0 -26 0 -9 26
24 38 12 40 -24 3 -23 -23 -37 -30 -54 -25 -12 3 -30 6 -41 6 -16 0 -17 2 -5
17 12 15 12 16 -6 9 -11 -5 -31 -13 -45 -19 -30 -11 -153 0 -130 13 8 4 44 10
80 13 36 3 82 13 102 21 21 9 59 16 86 16 38 0 53 5 70 23 12 13 22 32 22 43
0 15 -5 12 -21 -13 -11 -17 -31 -34 -45 -37 -28 -7 -64 1 -64 14 0 14 60 60
79 60 24 0 61 28 61 47 0 14 -3 13 -22 -4 -13 -11 -37 -25 -54 -31 -18 -5 -53
-31 -78 -57 -26 -26 -50 -45 -53 -42 -2 3 20 36 51 73 61 75 97 164 66 164 -5
0 -10 -8 -10 -19 0 -28 -21 -82 -30 -76 -5 3 -11 -3 -14 -13 -9 -27 -56 -70
-56 -51 0 8 7 25 16 37 9 13 13 26 9 30 -4 4 -10 1 -12 -5 -10 -27 -23 -11
-23 26 0 38 -16 98 -24 90 -2 -2 0 -49 6 -103 11 -112 4 -140 -38 -156 -15 -6
-28 -9 -30 -7 -4 4 18 63 41 109 15 30 16 42 7 60 -10 22 -11 22 -11 -8 -1
-18 -10 -39 -22 -50 l-22 -19 6 48 c4 28 3 47 -3 47 -6 0 -10 -10 -10 -22 l0
-23 -20 25 c-26 33 -26 10 0 -37 23 -43 25 -73 8 -95 -12 -14 -108 -71 -108
-64 0 2 7 20 15 39 16 39 20 77 8 76 -9 0 -69 -122 -79 -159 -14 -57 -31 -70
-89 -70 -58 0 -75 13 -89 70 -10 37 -70 159 -78 159 -13 1 -9 -37 7 -76 8 -19
15 -37 15 -39 0 -7 -96 50 -107 64 -18 22 -16 52 7 95 26 47 26 70 0 37 l-20
-25 0 23 c0 12 -4 22 -10 22 -6 0 -7 -19 -3 -47 l6 -48 -22 19 c-12 11 -21 32
-22 50 0 30 -1 30 -11 8 -9 -18 -8 -30 7 -60 23 -46 45 -105 41 -109 -2 -2
-15 1 -30 7 -42 16 -49 44 -38 156 6 54 8 101 6 103 -2 2 -8 -8 -14 -23z m540
-420 c0 -3 -4 -8 -10 -11 -5 -3 -10 -1 -10 4 0 6 5 11 10 11 6 0 10 -2 10 -4z
m-235 -36 c4 -6 -7 -10 -24 -10 -17 0 -31 5 -31 10 0 6 11 10 24 10 14 0 28
-4 31 -10z m155 0 c0 -5 -14 -10 -31 -10 -17 0 -28 4 -24 10 3 6 17 10 31 10
13 0 24 -4 24 -10z m-162 -32 c7 -7 12 -18 12 -25 0 -8 -7 -6 -20 7 -11 11
-20 22 -20 25 0 9 16 5 28 -7z m142 7 c0 -3 -9 -14 -20 -25 -13 -13 -20 -15
-20 -7 0 7 5 18 12 25 12 12 28 16 28 7z m-46 -91 c23 -22 20 -54 -4 -54 -21
0 -29 30 -7 30 7 1 4 7 -7 15 -15 11 -23 12 -40 3 -13 -7 -16 -13 -8 -16 20
-6 14 -32 -8 -32 -13 0 -20 7 -20 19 0 27 26 51 55 51 13 0 31 -7 39 -16z m-4
-73 c0 -12 -29 -19 -52 -13 -31 7 -19 22 17 22 19 0 35 -4 35 -9z"/>
<path d="M680 1547 c0 -8 7 -20 15 -27 12 -10 15 -10 15 3 0 8 -7 20 -15 27
-12 10 -15 10 -15 -3z"/>
<path d="M1552 1548 c-6 -6 -12 -19 -12 -27 0 -13 2 -13 16 1 9 9 15 21 13 27
-3 9 -8 8 -17 -1z"/>
<path d="M520 1531 c0 -11 5 -23 10 -26 6 -3 10 3 10 14 0 11 -4 23 -10 26 -5
3 -10 -3 -10 -14z"/>
<path d="M567 1544 c-11 -11 -8 -44 3 -44 15 0 24 30 13 41 -5 5 -12 6 -16 3z"/>
<path d="M1664 1536 c-6 -17 2 -36 17 -36 12 0 12 37 -1 45 -6 3 -13 -1 -16
-9z"/>
<path d="M1718 1544 c-5 -4 -8 -16 -8 -28 0 -14 3 -17 11 -9 6 6 9 19 7 28 -1
9 -6 13 -10 9z"/>
<path d="M606 1502 c-3 -5 1 -18 9 -28 14 -18 14 -18 15 3 0 23 -15 39 -24 25z"/>
<path d="M1624 1496 c-10 -27 2 -43 14 -19 8 14 9 24 2 28 -6 3 -13 -1 -16 -9z"/>
<path d="M926 1467 c-13 -19 -16 -31 -9 -38 14 -14 35 15 31 43 -3 23 -3 23
-22 -5z"/>
<path d="M1300 1466 c0 -28 24 -53 35 -36 6 10 -19 60 -30 60 -3 0 -5 -11 -5
-24z"/>
<path d="M486 1465 c4 -9 15 -20 25 -26 15 -7 19 -6 19 5 0 9 -9 20 -19 26
-27 14 -31 13 -25 -5z"/>
<path d="M977 1474 c-4 -4 -7 -14 -7 -23 0 -11 3 -12 11 -4 6 6 10 16 7 23 -2
6 -7 8 -11 4z"/>
<path d="M1260 1466 c0 -8 5 -18 10 -21 6 -3 10 1 10 9 0 8 -4 18 -10 21 -5 3
-10 -1 -10 -9z"/>
<path d="M1738 1469 c-26 -14 -24 -43 1 -30 19 11 37 41 23 41 -4 0 -15 -5
-24 -11z"/>
<path d="M500 1391 c0 -9 24 -21 42 -21 6 0 6 6 -2 15 -14 16 -40 20 -40 6z"/>
<path d="M1710 1385 c-8 -9 -8 -15 -2 -15 18 0 42 12 42 21 0 14 -26 10 -40
-6z"/>
<path d="M610 1381 c0 -5 5 -13 10 -16 6 -3 10 -2 10 4 0 5 -4 13 -10 16 -5 3
-10 2 -10 -4z"/>
<path d="M1627 1383 c-4 -3 -7 -11 -7 -17 0 -6 5 -5 12 2 6 6 9 14 7 17 -3 3
-9 2 -12 -2z"/>
<path d="M534 1345 c21 -16 32 -13 21 4 -3 6 -14 11 -23 11 -15 -1 -15 -2 2
-15z"/>
<path d="M1695 1349 c-11 -17 0 -20 21 -4 17 13 17 14 2 15 -9 0 -20 -5 -23
-11z"/>
<path d="M540 1290 c7 -13 21 -20 38 -20 l27 1 -24 19 c-32 27 -55 27 -41 0z"/>
<path d="M1669 1290 l-24 -19 27 -1 c17 0 31 7 38 20 14 27 -9 27 -41 0z"/>
<path d="M670 1285 c7 -8 21 -15 32 -15 17 0 18 3 8 15 -7 8 -21 15 -32 15
-17 0 -18 -3 -8 -15z"/>
<path d="M1540 1285 c-10 -12 -9 -15 8 -15 11 0 25 7 32 15 10 12 9 15 -8 15
-11 0 -25 -7 -32 -15z"/>
<path d="M685 1200 c-3 -6 5 -10 19 -10 14 0 28 5 31 10 3 6 -5 10 -19 10 -14
0 -28 -4 -31 -10z"/>
<path d="M1515 1200 c3 -5 17 -10 31 -10 14 0 22 4 19 10 -3 6 -17 10 -31 10
-14 0 -22 -4 -19 -10z"/>
<path d="M1059 574 c-23 -25 -23 -26 -2 -15 23 12 38 29 31 37 -3 2 -15 -8
-29 -22z"/>
<path d="M1162 588 c2 -6 15 -18 29 -27 l24 -15 -24 27 c-26 29 -35 34 -29 15z"/>
</g>
</svg>
